HIERARCHY
ROOT Hips
{
 OFFSET 0.000000 0.000000 0.000000
 CHANNELS 6 Xposition Yposition Zposition Yrotation Xrotation Zrotation
 JOINT Chest
 {
  OFFSET 0.000000 11.395451 -0.039534
  CHANNELS 3 Yrotation Xrotation Zrotation
  JOINT Chest2
  {
   OFFSET 0.000000 9.398669 0.071813
   CHANNELS 3 Yrotation Xrotation Zrotation
   JOINT Chest3
   {
    OFFSET 0.000000 8.489801 0.000000
    CHANNELS 3 Yrotation Xrotation Zrotation
    JOINT Chest4
    {
     OFFSET 0.000000 8.489801 0.000000
     CHANNELS 3 Yrotation Xrotation Zrotation
     JOINT Neck
     {
      OFFSET 0.000000 12.404889 0.000000
      CHANNELS 3 Yrotation Xrotation Zrotation
      JOINT Head
      {
       OFFSET 0.000000 8.903270 0.092239
       CHANNELS 3 Yrotation Xrotation Zrotation
       End Site
       {
        OFFSET 0.000000 17.592497 0.007158
       }
      }
     }
     JOINT RightCollar
     {
      OFFSET -3.196775 6.966722 0.000000
      CHANNELS 3 Yrotation Xrotation Zrotation
      JOINT RightShoulder
      {
       OFFSET -15.955896 0.000000 0.000000
       CHANNELS 3 Yrotation Xrotation Zrotation
       JOINT RightElbow
       {
        OFFSET -24.792472 0.000000 0.000000
        CHANNELS 3 Yrotation Xrotation Zrotation
        JOINT RightWrist
        {
         OFFSET -20.900115 0.000000 0.025002
         CHANNELS 3 Yrotation Xrotation Zrotation
         End Site
         {
          OFFSET -16.056692 0.000000 0.000000
         }
        }
       }
      }
     }
     JOINT LeftCollar
     {
      OFFSET 3.196775 6.966722 0.000000
      CHANNELS 3 Yrotation Xrotation Zrotation
      JOINT LeftShoulder
      {
       OFFSET 15.955896 0.000000 0.000000
       CHANNELS 3 Yrotation Xrotation Zrotation
       JOINT LeftElbow
       {
        OFFSET 24.792472 0.000000 0.000000
        CHANNELS 3 Yrotation Xrotation Zrotation
        JOINT LeftWrist
        {
         OFFSET 20.900115 0.000000 0.025002
         CHANNELS 3 Yrotation Xrotation Zrotation
         End Site
         {
          OFFSET 16.056692 0.000000 0.000000
         }
        }
       }
      }
     }
    }
   }
  }
 }
 JOINT RightHip
 {
  OFFSET -9.568995 0.193718 0.019767
  CHANNELS 3 Yrotation Xrotation Zrotation
  JOINT RightKnee
  {
   OFFSET 0.000000 -56.649296 0.015402
   CHANNELS 3 Yrotation Xrotation Zrotation
   JOINT RightAnkle
   {
    OFFSET 0.000000 -41.365147 0.021264
    CHANNELS 3 Yrotation Xrotation Zrotation
    JOINT RightToe
    {
     OFFSET 0.000000 -7.465940 17.672538
     CHANNELS 3 Yrotation Xrotation Zrotation
     End Site
     {
      OFFSET 0.000000 -1.736315 7.837145
     }
    }
   }
  }
 }
 JOINT LeftHip
 {
  OFFSET 9.568995 0.193718 0.019767
  CHANNELS 3 Yrotation Xrotation Zrotation
  JOINT LeftKnee
  {
   OFFSET 0.000000 -56.649296 0.015402
   CHANNELS 3 Yrotation Xrotation Zrotation
   JOINT LeftAnkle
   {
    OFFSET 0.000000 -41.365147 0.021264
    CHANNELS 3 Yrotation Xrotation Zrotation
    JOINT LeftToe
    {
     OFFSET 0.000000 -7.465940 17.672538
     CHANNELS 3 Yrotation Xrotation Zrotation
     End Site
     {
      OFFSET 0.000000 -1.736315 7.837145
     }
    }
   }
  }
 }
}
MOTION
Frames: 10
Frame Time: 0.016667
40.023802 106.609528 256.588456 22.391569 -8.047176 -0.704502 -0.016218 5.004143 1.717683 -0.025739 2.223993 0.762840 -0.025739 2.223993 0.762840 -0.022079 1.667966 0.572152 0.967879 14.946799 -2.263188 2.672529 -8.353601 -4.608205 1.222600 5.617743 6.947376 8.813716 -13.093966 74.473971 2.465748 -0.785137 -1.425544 -3.721187 1.300465 2.794352 -0.548448 4.935834 -10.306720 -2.122906 -12.674726 -75.556332 -2.211188 -3.454513 -1.014657 4.889396 2.709686 -1.012187 9.293558 11.424454 2.847431 -0.814325 2.010620 -0.284211 -1.025183 -7.236743 -0.687273 0.000000 -0.000000 0.000000 -0.029099 12.258337 0.272016 -0.665215 5.378141 -0.033593 2.281171 -9.091102 0.534359 0.001503 -0.462026 -0.410266
40.079461 106.597351 256.509292 22.487473 -8.000410 -0.704930 -0.014609 4.979528 1.673825 -0.024461 2.213062 0.743356 -0.024460 2.213062 0.743356 -0.021035 1.659771 0.557536 0.954977 14.969911 -2.223441 2.632265 -8.313089 -4.527909 1.211151 5.640201 6.995364 8.826998 -13.031963 74.584264 2.296832 -0.794810 -1.492969 -3.720867 1.312470 2.750830 -0.512664 4.991984 -10.222634 -2.140337 -12.618607 -75.629653 -1.996292 -3.497656 -0.881440 4.878728 2.729824 -0.991106 9.312602 11.357523 2.820134 -0.950677 2.031483 -0.339860 -1.025552 -7.260175 -0.618003 0.000000 0.000000 0.000000 -0.111575 12.170160 0.222814 -0.710253 5.415807 -0.031780 2.304911 -9.162721 0.556026 0.000696 -0.290913 -0.258305
40.135119 106.585174 256.430128 22.583364 -7.953643 -0.705278 -0.013015 4.954988 1.629923 -0.023196 2.202162 0.723852 -0.023195 2.202163 0.723852 -0.020003 1.651598 0.542905 0.942141 14.993011 -2.183655 2.592145 -8.272555 -4.447600 1.199764 5.662619 7.043386 8.840524 -12.970153 74.694592 2.127802 -0.804996 -1.560014 -3.720642 1.324292 2.707255 -0.476691 5.047893 -10.138411 -2.157876 -12.562333 -75.702830 -1.781778 -3.541853 -0.748105 4.867994 2.749831 -0.969943 9.331652 11.290653 2.792688 -1.087023 2.052397 -0.395561 -1.025986 -7.283594 -0.548721 0.000000 0.000000 0.000000 -0.193985 12.081977 0.173667 -0.755271 5.453506 -0.030021 2.328576 -9.234353 0.577711 0.000184 -0.119791 -0.106357
40.188724 106.575209 256.354828 22.666840 -7.909716 -0.707116 -0.010672 4.931815 1.589885 -0.021649 2.191873 0.706056 -0.021649 2.191873 0.706056 -0.018768 1.643882 0.529555 0.930691 15.019251 -2.147762 2.555982 -8.225920 -4.375009 1.190559 5.681288 7.087237 8.845351 -12.906475 74.797120 1.957180 -0.811528 -1.626763 -3.722715 1.337848 2.667941 -0.440850 5.097822 -10.059081 -2.155639 -12.500998 -75.772345 -1.599367 -3.568203 -0.629111 4.856542 2.766725 -0.948196 9.330457 11.232524 2.761162 -1.191331 2.060004 -0.441497 -1.022595 -7.296047 -0.484001 0.000000 -0.000000 0.000000 -0.262543 11.998184 0.127904 -0.795692 5.487692 -0.029102 2.347063 -9.295189 0.601342 0.000000 0.000000 0.000000
40.239329 106.568450 256.284453 22.734857 -7.865814 -0.712440 -0.007225 4.908081 1.556085 -0.019679 2.181337 0.691017 -0.019679 2.181337 0.691017 -0.017225 1.635983 0.518270 0.920773 15.052062 -2.117804 2.524672 -8.166740 -4.313878 1.184943 5.694911 7.124208 8.838273 -12.838103 74.889584 1.780224 -0.813145 -1.695919 -3.728863 1.355601 2.635727 -0.405573 5.139178 -9.986952 -2.123634 -12.431563 -75.838492 -1.460858 -3.567635 -0.526005 4.845052 2.779318 -0.924651 9.297748 11.182994 2.723768 -1.245126 2.047575 -0.471671 -1.017250 -7.292491 -0.427228 0.000000 -0.000000 -0.000000 -0.310743 11.914583 0.087879 -0.832341 5.519633 -0.029638 2.357975 -9.342010 0.629265 -0.000036 0.034227 0.030386
40.287881 106.563903 256.217941 22.790458 -7.824745 -0.719290 -0.003026 4.885670 1.526167 -0.017424 2.171391 0.677694 -0.017424 2.171391 0.677694 -0.015475 1.628526 0.508271 0.912248 15.088025 -2.091739 2.497334 -8.101464 -4.260470 1.181465 5.704801 7.156984 8.822436 -12.767718 74.974225 1.601707 -0.811051 -1.764977 -3.737251 1.375148 2.607745 -0.370529 5.174646 -9.919787 -2.071858 -12.357082 -75.900921 -1.354225 -3.548609 -0.437042 4.832862 2.788826 -0.900589 9.244800 11.142138 2.682477 -1.266896 2.021795 -0.492021 -1.008017 -7.277986 -0.375026 0.000000 0.000000 0.000000 -0.345134 11.835390 0.051185 -0.864397 5.548052 -0.030989 2.363733 -9.378027 0.659126 -0.000025 0.017114 0.015193
40.335169 106.560799 256.155966 22.830373 -7.797784 -0.723346 0.001627 4.871578 1.496970 -0.015005 2.165143 0.664684 -0.015005 2.165143 0.664684 -0.013608 1.623843 0.498507 0.905987 15.120022 -2.067386 2.475085 -8.043359 -4.211304 1.177941 5.711170 7.189430 8.798376 -12.701443 75.049941 1.434465 -0.804652 -1.826357 -3.744651 1.391110 2.579779 -0.334919 5.206455 -9.855822 -2.010394 -12.281825 -75.955185 -1.275326 -3.518205 -0.371716 4.817331 2.795900 -0.879283 9.185177 11.118935 2.639038 -1.280047 1.989417 -0.510605 -0.985276 -7.256759 -0.321815 0.000000 0.000000 0.000000 -0.371521 11.777619 0.014015 -0.884820 5.565578 -0.032038 2.366476 -9.402076 0.685796 0.000000 0.000000 0.000000
40.382321 106.559139 256.101071 22.848536 -7.799456 -0.721995 0.008700 4.872917 1.467091 -0.011555 2.165761 0.651342 -0.011555 2.165761 0.651343 -0.010974 1.624310 0.488490 0.902853 15.145648 -2.044161 2.459407 -7.996880 -4.165693 1.173951 5.710921 7.224109 8.761012 -12.640386 75.115197 1.280187 -0.791016 -1.876012 -3.750286 1.401118 2.550834 -0.297723 5.234924 -9.794175 -1.935667 -12.206408 -75.997820 -1.227898 -3.475347 -0.340048 4.797341 2.800703 -0.863197 9.128609 11.129451 2.595259 -1.294748 1.949052 -0.529905 -0.942595 -7.228892 -0.265186 0.000000 -0.000000 0.000000 -0.387358 11.761463 -0.025284 -0.887271 5.564814 -0.032533 2.363417 -9.411188 0.707309 0.000000 -0.000000 0.000000
40.428209 106.558922 256.050714 22.851022 -7.815243 -0.717890 0.016243 4.882549 1.437964 -0.007929 2.170065 0.638327 -0.007929 2.170065 0.638327 -0.008214 1.627543 0.478717 0.901949 15.167312 -2.022677 2.448738 -7.957577 -4.124340 1.169896 5.707175 7.258449 8.715345 -12.583336 75.171463 1.137258 -0.772829 -1.918283 -3.754903 1.407556 2.521960 -0.259987 5.259793 -9.735772 -1.851221 -12.130287 -76.032323 -1.208050 -3.420691 -0.332145 4.774046 2.803145 -0.849894 9.065332 11.157574 2.549246 -1.300838 1.902066 -0.547391 -0.886387 -7.194337 -0.207521 0.000000 -0.000000 0.000000 -0.395210 11.766713 -0.065060 -0.878114 5.553130 -0.032698 2.357390 -9.408327 0.725618 0.000000 0.000000 0.000000
40.470233 106.559373 255.997942 22.852775 -7.812858 -0.714617 0.018070 4.886103 1.410679 -0.006841 2.171649 0.626191 -0.006841 2.171649 0.626191 -0.007356 1.628732 0.469612 0.901500 15.185118 -2.002550 2.439605 -7.925354 -4.085855 1.164862 5.709477 7.288627 8.677033 -12.532967 75.222162 1.013570 -0.757884 -1.958097 -3.757569 1.412163 2.492037 -0.223983 5.282424 -9.681564 -1.777796 -12.056019 -76.064769 -1.200204 -3.364032 -0.327704 4.748220 2.803496 -0.835275 8.979693 11.164011 2.497235 -1.291215 1.859359 -0.563628 -0.826309 -7.157124 -0.150438 0.000000 -0.000000 0.000000 -0.408531 11.749760 -0.104133 -0.869358 5.545301 -0.032129 2.358960 -9.401247 0.741488 0.000000 0.000000 0.000000
